<!-- <svg xmlns="http://www.w3.org/2000/svg" viewBox="0 0 841.9 595.3"><g fill="#61DAFB"><path d="M666.3 296.5c0-32.5-40.7-63.3-103.1-82.4 14.4-63.6 8-114.2-20.2-130.4-6.5-3.8-14.1-5.6-22.4-5.6v22.3c4.6 0 8.3.9 11.4 2.6 13.6 7.8 19.5 37.5 14.9 75.7-1.1 9.4-2.9 19.3-5.1 29.4-19.6-4.8-41-8.5-63.5-10.9-13.5-18.5-27.5-35.3-41.6-50 32.6-30.3 63.2-46.9 84-46.9V78c-27.5 0-63.5 19.6-99.9 53.6-36.4-33.8-72.4-53.2-99.9-53.2v22.3c20.7 0 51.4 16.5 84 46.6-14 14.7-28 31.4-41.3 49.9-22.6 2.4-44 6.1-63.6 11-2.3-10-4-19.7-5.2-29-4.7-38.2 1.1-67.9 14.6-75.8 3-1.8 6.9-2.6 11.5-2.6V78.5c-8.4 0-16 1.8-22.6 5.6-28.1 16.2-34.4 66.7-19.9 130.1-62.2 19.2-102.7 49.9-102.7 82.3 0 32.5 40.7 63.3 103.1 82.4-14.4 63.6-8 114.2 20.2 130.4 6.5 3.8 14.1 5.6 22.5 5.6 27.5 0 63.5-19.6 99.9-53.6 36.4 33.8 72.4 53.2 99.9 53.2 8.4 0 16-1.8 22.6-5.6 28.1-16.2 34.4-66.7 19.9-130.1 62-19.1 102.5-49.9 102.5-82.3zm-130.2-66.7c-3.7 12.9-8.3 26.2-13.5 39.5-4.1-8-8.4-16-13.1-24-4.6-8-9.5-15.8-14.4-23.4 14.2 2.1 27.9 4.7 41 7.9zm-45.8 106.5c-7.8 13.5-15.8 26.3-24.1 38.2-14.9 1.3-30 2-45.2 2-15.1 0-30.2-.7-45-1.9-8.3-11.9-16.4-24.6-24.2-38-7.6-13.1-14.5-26.4-20.8-39.8 6.2-13.4 13.2-26.8 20.7-39.9 7.8-13.5 15.8-26.3 24.1-38.2 14.9-1.3 30-2 45.2-2 15.1 0 30.2.7 45 1.9 8.3 11.9 16.4 24.6 24.2 38 7.6 13.1 14.5 26.4 20.8 39.8-6.3 13.4-13.2 26.8-20.7 39.9zm32.3-13c5.4 13.4 10 26.8 13.8 39.8-13.1 3.2-26.9 5.9-41.2 8 4.9-7.7 9.8-15.6 14.4-23.7 4.6-8 8.9-16.1 13-24.1zM421.2 430c-9.3-9.6-18.6-20.3-27.8-32 9 .4 18.2.7 27.5.7 9.4 0 18.7-.2 27.8-.7-9 11.7-18.3 22.4-27.5 32zm-74.4-58.9c-14.2-2.1-27.9-4.7-41-7.9 3.7-12.9 8.3-26.2 13.5-39.5 4.1 8 8.4 16 13.1 24 4.7 8 9.5 15.8 14.4 23.4zM420.7 163c9.3 9.6 18.6 20.3 27.8 32-9-.4-18.2-.7-27.5-.7-9.4 0-18.7.2-27.8.7 9-11.7 18.3-22.4 27.5-32zm-74 58.9c-4.9 7.7-9.8 15.6-14.4 23.7-4.6 8-8.9 16-13 24-5.4-13.4-10-26.8-13.8-39.8 13.1-3.1 26.9-5.8 41.2-7.9zm-90.5 125.2c-35.4-15.1-58.3-34.9-58.3-50.6 0-15.7 22.9-35.6 58.3-50.6 8.6-3.7 18-7 27.7-10.1 5.7 19.6 13.2 40 22.5 60.9-9.2 20.8-16.6 41.1-22.2 60.6-9.9-3.1-19.3-6.5-28-10.2zM310 490c-13.6-7.8-19.5-37.5-14.9-75.7 1.1-9.4 2.9-19.3 5.1-29.4 19.6 4.8 41 8.5 63.5 10.9 13.5 18.5 27.5 35.3 41.6 50-32.6 30.3-63.2 46.9-84 46.9-4.5-.1-8.3-1-11.3-2.7zm237.2-76.2c4.7 38.2-1.1 67.9-14.6 75.8-3 1.8-6.9 2.6-11.5 2.6-20.7 0-51.4-16.5-84-46.6 14-14.7 28-31.4 41.3-49.9 22.6-2.4 44-6.1 63.6-11 2.3 10.1 4.1 19.8 5.2 29.1zm38.5-66.7c-8.6 3.7-18 7-27.7 10.1-5.7-19.6-13.2-40-22.5-60.9 9.2-20.8 16.6-41.1 22.2-60.6 9.9 3.1 19.3 6.5 28.1 10.2 35.4 15.1 58.3 34.9 58.3 50.6-.1 15.7-23 35.6-58.4 50.6zM320.8 78.4z"/><circle cx="420.9" cy="296.5" r="45.7"/><path d="M520.5 78.1z"/></g></svg> -->

<svg xmlns="http://www.w3.org/2000/svg" viewBox="0 0 512 512" style="enable-background:new 0 0 512 512" xml:space="preserve"><path style="fill:#548229" d="M486.455 361.655h17.931V101.256H101.997v260.399z"/><path style="fill:#6eac34" d="M74.297 150.345h388.691v260.399H7.614V150.345h28.387z"/><circle style="fill:#c6e0a9" cx="237.888" cy="281.4" r="81.33"/><path style="fill:#c6e0a9" d="M7.614 226.045c41.808 0 75.7-33.892 75.7-75.7h-75.7v75.7zM462.988 226.045c-41.808 0-75.7-33.892-75.7-75.7h75.7v75.7zM83.315 410.744c0-41.808-33.892-75.7-75.7-75.7v75.7h75.7zM387.288 410.744c0-41.808 33.892-75.7 75.7-75.7v75.7h-75.7z"/><g style="opacity:.46"><path style="fill:#548229" d="M395.693 150.692c-44.807 124.811-161.564 210.71-249.459 260.053H462.99V150.692h-67.297z"/></g><path d="M223.453 304.423a7.614 7.614 0 0 0-15.228 0c0 13.722 9.37 25.294 22.046 28.664v5.459a7.614 7.614 0 0 0 15.228 0v-5.459c12.676-3.371 22.045-14.942 22.045-28.664 0-14.744-10.943-20.596-20.598-25.758l-1.448-.779v-29.791c4.084 2.551 6.816 7.075 6.816 12.236a7.614 7.614 0 0 0 15.228 0c0-13.722-9.368-25.294-22.045-28.664v-7.421a7.614 7.614 0 0 0-15.228 0v7.421c-12.676 3.371-22.046 14.942-22.046 28.664 0 14.422 10.414 20.101 19.602 25.113.803.438 1.622.888 2.444 1.344v29.87c-4.084-2.55-6.816-7.074-6.816-12.235zm28.862 0c0 5.16-2.732 9.684-6.816 12.236v-21.363c5.03 3.034 6.816 5.182 6.816 9.127zm-28.862-44.092c0-5.16 2.732-9.685 6.817-12.237v21.242c-5.392-3.225-6.817-5.1-6.817-9.005z"/><path d="M462.989 142.731H74.297a7.614 7.614 0 0 0 0 15.228h.966c-3.519 31.469-28.566 56.516-60.035 60.035v-60.035H36a7.614 7.614 0 0 0 0-15.228H7.614A7.614 7.614 0 0 0 0 150.345v260.399a7.614 7.614 0 0 0 7.614 7.614h455.375a7.613 7.613 0 0 0 7.614-7.614V150.345a7.613 7.613 0 0 0-7.614-7.614zm-7.614 75.264c-31.47-3.519-56.517-28.566-60.035-60.035h60.035v60.035zM90.566 157.959h289.47c3.631 39.873 35.465 71.705 75.338 75.338v94.496c-39.873 3.631-71.706 35.464-75.338 75.338H90.566c-3.631-39.873-35.465-71.705-75.338-75.338v-94.496c39.873-3.631 71.707-35.465 75.338-75.338zM15.228 343.095c31.469 3.52 56.517 28.566 60.035 60.035H15.228v-60.035zm380.111 60.035c3.519-31.469 28.566-56.516 60.035-60.035v60.035h-60.035z"/><path d="M504.386 93.641H101.997a7.614 7.614 0 0 0-7.614 7.614v21.983a7.614 7.614 0 0 0 15.228 0V108.87h387.161v245.171h-10.317a7.613 7.613 0 0 0-7.614 7.614 7.613 7.613 0 0 0 7.614 7.614h17.931a7.613 7.613 0 0 0 7.614-7.614v-260.4a7.614 7.614 0 0 0-7.614-7.614z"/><path d="M237.885 370.338c49.043 0 88.942-39.899 88.942-88.942s-39.899-88.942-88.942-88.942-88.942 39.899-88.942 88.942 39.899 88.942 88.942 88.942zm0-162.654c40.647 0 73.714 33.068 73.714 73.714s-33.067 73.714-73.714 73.714c-40.646 0-73.714-33.068-73.714-73.714s33.068-73.714 73.714-73.714z"/></svg>
